{
    "asset" : {
        "generator" : "Khronos glTF Blender I/O v1.1.46",
        "version" : "2.0"
    },
    "scene" : 0,
    "scenes" : [
        {
            "name" : "Scene",
            "nodes" : [
                0,
                4,
                6,
                7
            ]
        }
    ],
    "nodes" : [
        {
            "name" : "Camera",
            "rotation" : [
                0.483536034822464,
                0.33687159419059753,
                -0.20870360732078552,
                0.7804827094078064
            ],
            "translation" : [
                7.358891487121582,
                4.958309173583984,
                6.925790786743164
            ]
        },
        {
            "mesh" : 0,
            "name" : "node-0",
            "scale" : [
                0.26215308904647827,
                0.26215308904647827,
                0.29613015055656433
            ]
        },
        {
            "children" : [
                1
            ],
            "name" : "Node.002",
            "translation" : [
                -0.22570274770259857,
                -0.3981512784957886,
                8.064939498901367
            ]
        },
        {
            "children" : [
                2
            ],
            "name" : "Node.001",
            "translation" : [
                0.22570274770259857,
                0.3981512784957886,
                -8.064939498901367
            ]
        },
        {
            "children" : [
                3
            ],
            "name" : "Node",
            "rotation" : [
                0.7071068286895752,
                0,
                0,
                0.7071067094802856
            ]
        },
        {
            "name" : "headLight",
            "translation" : [
                -10.855083465576172,
                5.427541732788086,
                -5.427541732788086
            ]
        },
        {
            "children" : [
                5
            ],
            "name" : "Camera.001",
            "rotation" : [
                0.5078175663948059,
                -0.22016426920890808,
                0.13606904447078705,
                0.8216655254364014
            ],
            "translation" : [
                -13.059887886047363,
                21.83821678161621,
                23.403608322143555
            ]
        },
        {
            "name" : "keyLight",
            "rotation" : [
                -0.7113732695579529,
                -0.11029914021492004,
                0.1598774492740631,
                0.6754416823387146
            ],
            "scale" : [
                0,
                3.7526933738263324e-07,
                10.963637351989746
            ],
            "translation" : [
                -10.766688346862793,
                30.252452850341797,
                -10.850179672241211
            ]
        }
    ],
    "materials" : [
        {
            "doubleSided" : true,
            "emissiveFactor" : [
                0,
                0,
                0
            ],
            "name" : "BambooTree_mat",
            "pbrMetallicRoughness" : {
                "baseColorFactor" : [
                    0.5,
                    0.5,
                    0.5,
                    1
                ],
                "baseColorTexture" : {
                    "index" : 0,
                    "texCoord" : 0
                },
                "metallicFactor" : 0,
                "roughnessFactor" : 0.9699476361274719
            }
        }
    ],
    "meshes" : [
        {
            "name" : "buffer-0-mesh-0.002",
            "primitives" : [
                {
                    "attributes" : {
                        "POSITION" : 0,
                        "NORMAL" : 1,
                        "TEXCOORD_0" : 2
                    },
                    "indices" : 3,
                    "material" : 0
                }
            ]
        }
    ],
    "textures" : [
        {
            "source" : 0
        }
    ],
    "images" : [
        {
            "bufferView" : 4,
            "mimeType" : "image/png",
            "name" : "BambooTree_BaseColor"
        }
    ],
    "accessors" : [
        {
            "bufferView" : 0,
            "componentType" : 5126,
            "count" : 11592,
            "max" : [
                1.933686375617981,
                2.474177360534668,
                8.325117111206055
            ],
            "min" : [
                -2.2270193099975586,
                -2.084230422973633,
                -9.801164627075195
            ],
            "type" : "VEC3"
        },
        {
            "bufferView" : 1,
            "componentType" : 5126,
            "count" : 11592,
            "type" : "VEC3"
        },
        {
            "bufferView" : 2,
            "componentType" : 5126,
            "count" : 11592,
            "type" : "VEC2"
        },
        {
            "bufferView" : 3,
            "componentType" : 5123,
            "count" : 11592,
            "type" : "SCALAR"
        }
    ],
    "bufferViews" : [
        {
            "buffer" : 0,
            "byteLength" : 139104,
            "byteOffset" : 0
        },
        {
            "buffer" : 0,
            "byteLength" : 139104,
            "byteOffset" : 139104
        },
        {
            "buffer" : 0,
            "byteLength" : 92736,
            "byteOffset" : 278208
        },
        {
            "buffer" : 0,
            "byteLength" : 23184,
            "byteOffset" : 370944
        },
        {
            "buffer" : 0,
            "byteLength" : 2017268,
            "byteOffset" : 394128
        }
    ],
    "buffers" : [
        {
            "byteLength" : 2411396,
            "uri" : "data:application/octet-stream;base64,"
        }
    ]
}
