{
    "asset" : {
        "generator" : "Khronos glTF Blender I/O v1.1.46",
        "version" : "2.0"
    },
    "scene" : 0,
    "scenes" : [
        {
            "name" : "Scene",
            "nodes" : [
                0,
                1,
                4,
                6,
                7,
                10,
                12,
                13,
                16,
                18,
                19,
                23,
                25,
                26
            ]
        }
    ],
    "nodes" : [
        {
            "name" : "Light",
            "rotation" : [
                0.16907575726509094,
                0.7558803558349609,
                -0.27217137813568115,
                0.570947527885437
            ],
            "translation" : [
                4.076245307922363,
                5.903861999511719,
                -1.0054539442062378
            ]
        },
        {
            "name" : "Camera",
            "rotation" : [
                0.483536034822464,
                0.33687159419059753,
                -0.20870360732078552,
                0.7804827094078064
            ],
            "translation" : [
                7.358891487121582,
                4.958309173583984,
                6.925790786743164
            ]
        },
        {
            "name" : "Node.002",
            "translation" : [
                -0.24179571866989136,
                1.021166205406189,
                1.2382898330688477
            ]
        },
        {
            "children" : [
                2
            ],
            "name" : "Node.001",
            "translation" : [
                0.24179571866989136,
                -1.021166205406189,
                -1.2382898330688477
            ]
        },
        {
            "children" : [
                3
            ],
            "name" : "Node",
            "rotation" : [
                0.7071068286895752,
                0,
                0,
                0.7071067094802856
            ]
        },
        {
            "name" : "headLight",
            "translation" : [
                -0.421669065952301,
                0.2108345329761505,
                -0.2108345329761505
            ]
        },
        {
            "children" : [
                5
            ],
            "name" : "Camera.001",
            "rotation" : [
                0.5824213624000549,
                -0.13005264103412628,
                0.09506620466709137,
                0.7967647314071655
            ],
            "translation" : [
                -0.0550348237156868,
                1.5357184410095215,
                -0.13593290746212006
            ]
        },
        {
            "name" : "keyLight",
            "rotation" : [
                -0.7113732695579529,
                -0.11029913276433945,
                0.1598774641752243,
                0.6754416823387146
            ],
            "scale" : [
                0,
                1.457745391064691e-08,
                0.4258858561515808
            ],
            "translation" : [
                -0.18298067152500153,
                2.1815357208251953,
                -1.459112524986267
            ]
        },
        {
            "name" : "Node.005",
            "translation" : [
                -0.006645322311669588,
                -0.017657138407230377,
                -0.22317111492156982
            ]
        },
        {
            "children" : [
                8
            ],
            "name" : "Node.004",
            "translation" : [
                0.006645322311669588,
                0.017657138407230377,
                0.22317111492156982
            ]
        },
        {
            "children" : [
                9
            ],
            "name" : "Node.003",
            "rotation" : [
                0.7071068286895752,
                0,
                0,
                0.7071067094802856
            ]
        },
        {
            "name" : "headLight.001",
            "translation" : [
                -1.3456512689590454,
                0.6728256344795227,
                -0.6728256344795227
            ]
        },
        {
            "children" : [
                11
            ],
            "name" : "Camera.002",
            "rotation" : [
                0.6813262701034546,
                -0.0007405305514112115,
                0.0006892855162732303,
                0.7319791913032532
            ],
            "translation" : [
                0.00037731454358436167,
                -0.01015461329370737,
                2.9806764125823975
            ]
        },
        {
            "name" : "keyLight.001",
            "rotation" : [
                -0.7113732695579529,
                -0.11029914021492004,
                0.1598774492740631,
                0.6754416823387146
            ],
            "scale" : [
                0,
                4.65202987243174e-08,
                1.3591082096099854
            ],
            "translation" : [
                -1.3587305545806885,
                2.708061933517456,
                -1.356952428817749
            ]
        },
        {
            "name" : "Node.008",
            "translation" : [
                0.17845392227172852,
                -1.4888273477554321,
                1.8140302896499634
            ]
        },
        {
            "children" : [
                14
            ],
            "name" : "Node.007",
            "translation" : [
                -0.17845392227172852,
                1.4888273477554321,
                -1.8140302896499634
            ]
        },
        {
            "children" : [
                15
            ],
            "name" : "Node.006",
            "rotation" : [
                0.7071068286895752,
                0,
                0,
                0.7071067094802856
            ]
        },
        {
            "name" : "headLight.002",
            "translation" : [
                -0.9724716544151306,
                0.4862358272075653,
                -0.4862358272075653
            ]
        },
        {
            "children" : [
                17
            ],
            "name" : "Camera.003",
            "rotation" : [
                0.56911301612854,
                0.1183038130402565,
                -0.08317858725786209,
                0.8094416856765747
            ],
            "translation" : [
                0.3112284243106842,
                2.3852922916412354,
                3.287875175476074
            ]
        },
        {
            "name" : "keyLight.002",
            "rotation" : [
                -0.7113732695579529,
                -0.11029911786317825,
                0.1598774939775467,
                0.6754417419433594
            ],
            "scale" : [
                0,
                3.361915545951888e-08,
                0.9821965098381042
            ],
            "translation" : [
                -1.1609718799591064,
                3.8295605182647705,
                0.5013148188591003
            ]
        },
        {
            "mesh" : 0,
            "name" : "node-0"
        },
        {
            "children" : [
                20
            ],
            "name" : "Node.011",
            "translation" : [
                0.020716790109872818,
                -0.013346806168556213,
                -0.005660237278789282
            ]
        },
        {
            "children" : [
                21
            ],
            "name" : "Node.010",
            "translation" : [
                -0.020716790109872818,
                0.013346806168556213,
                0.005660237278789282
            ]
        },
        {
            "children" : [
                22
            ],
            "name" : "Node.009",
            "rotation" : [
                0.7071068286895752,
                0,
                0,
                0.7071067094802856
            ]
        },
        {
            "name" : "headLight.003",
            "translation" : [
                -1.082015037536621,
                0.5410075187683105,
                -0.5410075187683105
            ]
        },
        {
            "children" : [
                24
            ],
            "name" : "Camera.004",
            "rotation" : [
                0.7058311104774475,
                0.002872142707929015,
                -0.002861852990463376,
                0.7083685398101807
            ],
            "translation" : [
                -0.00046213960740715265,
                0.0033429707400500774,
                2.53653621673584
            ]
        },
        {
            "name" : "keyLight.003",
            "rotation" : [
                -0.7113732099533081,
                -0.11029912531375885,
                0.1598774492740631,
                0.6754416823387146
            ],
            "scale" : [
                0,
                3.7406167052722594e-08,
                1.092835545539856
            ],
            "translation" : [
                -1.0932972431182861,
                2.189014196395874,
                -1.0926275253295898
            ]
        }
    ],
    "materials" : [
        {
            "alphaMode" : "BLEND",
            "doubleSided" : true,
            "emissiveFactor" : [
                0,
                0,
                0
            ],
            "name" : "None.001",
            "pbrMetallicRoughness" : {
                "baseColorFactor" : [
                    0.800000011920929,
                    0.800000011920929,
                    0.800000011920929,
                    1
                ],
                "baseColorTexture" : {
                    "index" : 0,
                    "texCoord" : 0
                },
                "metallicFactor" : 0,
                "roughnessFactor" : 1
            }
        }
    ],
    "meshes" : [
        {
            "name" : "buffer-0-mesh-0.001",
            "primitives" : [
                {
                    "attributes" : {
                        "POSITION" : 0,
                        "NORMAL" : 1,
                        "TEXCOORD_0" : 2
                    },
                    "indices" : 3,
                    "material" : 0
                }
            ]
        }
    ],
    "textures" : [
        {
            "source" : 0
        }
    ],
    "images" : [
        {
            "bufferView" : 4,
            "mimeType" : "image/png",
            "name" : "PUSHILIN_bamboo"
        }
    ],
    "accessors" : [
        {
            "bufferView" : 0,
            "componentType" : 5126,
            "count" : 4722,
            "max" : [
                0.5154822468757629,
                0.4706614315509796,
                0.9608633518218994
            ],
            "min" : [
                -0.3823677599430084,
                -0.402366578578949,
                -0.8905156850814819
            ],
            "type" : "VEC3"
        },
        {
            "bufferView" : 1,
            "componentType" : 5126,
            "count" : 4722,
            "type" : "VEC3"
        },
        {
            "bufferView" : 2,
            "componentType" : 5126,
            "count" : 4722,
            "type" : "VEC2"
        },
        {
            "bufferView" : 3,
            "componentType" : 5123,
            "count" : 4722,
            "type" : "SCALAR"
        }
    ],
    "bufferViews" : [
        {
            "buffer" : 0,
            "byteLength" : 56664,
            "byteOffset" : 0
        },
        {
            "buffer" : 0,
            "byteLength" : 56664,
            "byteOffset" : 56664
        },
        {
            "buffer" : 0,
            "byteLength" : 37776,
            "byteOffset" : 113328
        },
        {
            "buffer" : 0,
            "byteLength" : 9444,
            "byteOffset" : 151104
        },
        {
            "buffer" : 0,
            "byteLength" : 235209,
            "byteOffset" : 160548
        }
    ],
    "buffers" : [
        {
            "byteLength" : 395760,
            "uri" : "data:application/octet-stream;base64,"
        }
    ]
}
