{
    "asset" : {
        "generator" : "Khronos glTF Blender I/O v1.1.46",
        "version" : "2.0"
    },
    "scene" : 0,
    "scenes" : [
        {
            "name" : "Scene",
            "nodes" : [
                0,
                1,
                2,
                3,
                7,
                9,
                10
            ]
        }
    ],
    "nodes" : [
        {
            "name" : "Light",
            "rotation" : [
                0.16907575726509094,
                0.7558803558349609,
                -0.27217137813568115,
                0.570947527885437
            ],
            "translation" : [
                4.076245307922363,
                5.903861999511719,
                -1.0054539442062378
            ]
        },
        {
            "name" : "Camera",
            "rotation" : [
                0.483536034822464,
                0.33687159419059753,
                -0.20870360732078552,
                0.7804827094078064
            ],
            "translation" : [
                7.358891487121582,
                4.958309173583984,
                6.925790786743164
            ]
        },
        {
            "name" : "Light.001",
            "rotation" : [
                0.5232754945755005,
                0.34203392267227173,
                -0.7269423604011536,
                0.284166157245636
            ],
            "translation" : [
                4.076245307922363,
                5.903862476348877,
                -1.0054532289505005
            ]
        },
        {
            "name" : "Camera.001",
            "rotation" : [
                0.8937963247299194,
                0.09062855690717697,
                -0.3857799172401428,
                0.20997287333011627
            ],
            "translation" : [
                7.358891487121582,
                4.958308696746826,
                6.925792217254639
            ]
        },
        {
            "mesh" : 0,
            "name" : "node_MeshObject184795136-PolyPaper11",
            "scale" : [
                0.6667470335960388,
                0.38231754302978516,
                0.5705481767654419
            ]
        },
        {
            "children" : [
                4
            ],
            "name" : "Node.002",
            "translation" : [
                0.322020024061203,
                -1.5762747526168823,
                -1.3970283269882202
            ]
        },
        {
            "children" : [
                5
            ],
            "name" : "Node.001",
            "translation" : [
                -0.322020024061203,
                1.5762747526168823,
                1.3970283269882202
            ]
        },
        {
            "children" : [
                6
            ],
            "name" : "Node",
            "rotation" : [
                1,
                0,
                0,
                -1.3435885648505064e-07
            ]
        },
        {
            "name" : "headLight",
            "translation" : [
                -3.1344566345214844,
                -1.5672283172607422,
                -1.5672283172607422
            ]
        },
        {
            "children" : [
                8
            ],
            "name" : "Camera.002",
            "rotation" : [
                0.9400865435600281,
                -0.059464454650878906,
                0.2518949508666992,
                0.22192396223545074
            ],
            "translation" : [
                -3.646010637283325,
                1.7476906776428223,
                4.359921932220459
            ]
        },
        {
            "name" : "keyLight",
            "rotation" : [
                -0.4425837993621826,
                -0.10290312767028809,
                0.06944755464792252,
                0.888092041015625
            ],
            "scale" : [
                0,
                3.1658031940460205,
                1.0836083674803376e-07
            ],
            "translation" : [
                -3.499011516571045,
                4.4875383377075195,
                -4.580898284912109
            ]
        }
    ],
    "materials" : [
        {
            "emissiveFactor" : [
                0,
                0,
                0
            ],
            "name" : "BlocksPaper_COLOR_0_COLOR_0",
            "pbrMetallicRoughness" : {
                "metallicFactor" : 0,
                "roughnessFactor" : 0.6000000238418579
            }
        }
    ],
    "meshes" : [
        {
            "name" : "mesh_m0-PolyPaper11_-16716",
            "primitives" : [
                {
                    "attributes" : {
                        "POSITION" : 0,
                        "NORMAL" : 1,
                        "COLOR_0" : 2
                    },
                    "indices" : 3,
                    "material" : 0
                }
            ]
        }
    ],
    "accessors" : [
        {
            "bufferView" : 0,
            "componentType" : 5126,
            "count" : 3336,
            "max" : [
                0.26394134759902954,
                2.3050410747528076,
                0.2016673982143402
            ],
            "min" : [
                -0.2188032865524292,
                -2.843461036682129,
                -0.1805988848209381
            ],
            "type" : "VEC3"
        },
        {
            "bufferView" : 1,
            "componentType" : 5126,
            "count" : 3336,
            "type" : "VEC3"
        },
        {
            "bufferView" : 2,
            "componentType" : 5126,
            "count" : 3336,
            "type" : "VEC4"
        },
        {
            "bufferView" : 3,
            "componentType" : 5123,
            "count" : 3336,
            "type" : "SCALAR"
        }
    ],
    "bufferViews" : [
        {
            "buffer" : 0,
            "byteLength" : 40032,
            "byteOffset" : 0
        },
        {
            "buffer" : 0,
            "byteLength" : 40032,
            "byteOffset" : 40032
        },
        {
            "buffer" : 0,
            "byteLength" : 53376,
            "byteOffset" : 80064
        },
        {
            "buffer" : 0,
            "byteLength" : 6672,
            "byteOffset" : 133440
        }
    ],
    "buffers" : [
        {
            "byteLength" : 140112,
            "uri" : "data:application/octet-stream;base64,"
        }
    ]
}
