{
    "asset" : {
        "generator" : "Khronos glTF Blender I/O v1.2.75",
        "version" : "2.0"
    },
    "scene" : 0,
    "scenes" : [
        {
            "name" : "Scene",
            "nodes" : [
                3,
                5,
                6,
                7,
                8
            ]
        }
    ],
    "nodes" : [
        {
            "mesh" : 0,
            "name" : "node-0",
            "translation" : [
                -0.07639338076114655,
                0.3654533922672272,
                -0.11927873641252518
            ]
        },
        {
            "children" : [
                0
            ],
            "name" : "Node_3",
            "translation" : [
                0.034740157425403595,
                0.2425857037305832,
                0.06091875210404396
            ]
        },
        {
            "children" : [
                1
            ],
            "name" : "Node_2",
            "translation" : [
                -0.034740157425403595,
                -0.2425857037305832,
                -0.06091875210404396
            ]
        },
        {
            "children" : [
                2
            ],
            "name" : "Node_1"
        },
        {
            "name" : "headLightNode",
            "translation" : [
                -1.196183204650879,
                0.5980916023254395,
                -0.5980916023254395
            ]
        },
        {
            "children" : [
                4
            ],
            "name" : "Camera.001",
            "rotation" : [
                0.5078175067901611,
                -0.22016428411006927,
                0.13606910407543182,
                0.8216655254364014
            ],
            "translation" : [
                -1.401729941368103,
                1.1243524551391602,
                2.3069088459014893
            ]
        },
        {
            "name" : "keyLightNode",
            "rotation" : [
                -0.14607977867126465,
                -0.26535338163375854,
                0.26535338163375854,
                0.9153337478637695
            ],
            "scale" : [
                0,
                1.2081451416015625,
                0
            ],
            "translation" : [
                -1.1953095197677612,
                2.419854164123535,
                -1.2182202339172363
            ]
        },
        {
            "name" : "Light",
            "rotation" : [
                0.16907575726509094,
                0.7558803558349609,
                -0.27217137813568115,
                0.570947527885437
            ],
            "translation" : [
                4.076245307922363,
                5.903861999511719,
                -1.0054539442062378
            ]
        },
        {
            "name" : "Camera",
            "rotation" : [
                0.483536034822464,
                0.33687159419059753,
                -0.20870360732078552,
                0.7804827094078064
            ],
            "translation" : [
                7.358891487121582,
                4.958309173583984,
                6.925790786743164
            ]
        }
    ],
    "materials" : [
        {
            "alphaMode" : "BLEND",
            "doubleSided" : true,
            "emissiveFactor" : [
                0,
                0,
                0
            ],
            "name" : "None",
            "pbrMetallicRoughness" : {
                "baseColorFactor" : [
                    0.800000011920929,
                    0.800000011920929,
                    0.800000011920929,
                    1
                ],
                "baseColorTexture" : {
                    "index" : 0,
                    "texCoord" : 0
                },
                "metallicFactor" : 0,
                "roughnessFactor" : 1
            }
        }
    ],
    "meshes" : [
        {
            "name" : "buffer-0-mesh-0",
            "primitives" : [
                {
                    "attributes" : {
                        "POSITION" : 0,
                        "NORMAL" : 1,
                        "TEXCOORD_0" : 2
                    },
                    "indices" : 3,
                    "material" : 0
                }
            ]
        }
    ],
    "textures" : [
        {
            "source" : 0
        }
    ],
    "images" : [
        {
            "mimeType" : "image/png",
            "name" : "PUSHILIN_cactus",
            "uri" : "PUSHILIN_cactus.png"
        }
    ],
    "accessors" : [
        {
            "bufferView" : 0,
            "componentType" : 5126,
            "count" : 1212,
            "max" : [
                0.8803183436393738,
                0.8135642409324646,
                0.6091327667236328
            ],
            "min" : [
                -0.6671536564826965,
                -0.7867717742919922,
                -0.6259332895278931
            ],
            "type" : "VEC3"
        },
        {
            "bufferView" : 1,
            "componentType" : 5126,
            "count" : 1212,
            "type" : "VEC3"
        },
        {
            "bufferView" : 2,
            "componentType" : 5126,
            "count" : 1212,
            "type" : "VEC2"
        },
        {
            "bufferView" : 3,
            "componentType" : 5123,
            "count" : 1212,
            "type" : "SCALAR"
        }
    ],
    "bufferViews" : [
        {
            "buffer" : 0,
            "byteLength" : 14544,
            "byteOffset" : 0
        },
        {
            "buffer" : 0,
            "byteLength" : 14544,
            "byteOffset" : 14544
        },
        {
            "buffer" : 0,
            "byteLength" : 9696,
            "byteOffset" : 29088
        },
        {
            "buffer" : 0,
            "byteLength" : 2424,
            "byteOffset" : 38784
        }
    ],
    "buffers" : [
        {
            "byteLength" : 41208,
            "uri" : "cactus_2.bin"
        }
    ]
}
