{
    "asset" : {
        "generator" : "Khronos glTF Blender I/O v1.2.75",
        "version" : "2.0"
    },
    "scene" : 0,
    "scenes" : [
        {
            "name" : "Scene",
            "nodes" : [
                0,
                1,
                5,
                7,
                8,
                9,
                10,
                11,
                12
            ]
        }
    ],
    "nodes" : [
        {
            "name" : "Light.001",
            "rotation" : [
                0.16907575726509094,
                0.7558803558349609,
                -0.27217137813568115,
                0.570947527885437
            ],
            "translation" : [
                4.076245307922363,
                5.903861999511719,
                -1.0054539442062378
            ]
        },
        {
            "name" : "Camera.001",
            "rotation" : [
                0.483536034822464,
                0.33687159419059753,
                -0.20870360732078552,
                0.7804827094078064
            ],
            "translation" : [
                7.358891487121582,
                4.958309173583984,
                6.925790786743164
            ]
        },
        {
            "mesh" : 0,
            "name" : "node-0",
            "scale" : [
                0.18734794855117798,
                0.18734797835350037,
                0.18734797835350037
            ],
            "translation" : [
                0,
                0,
                -0.4793308675289154
            ]
        },
        {
            "children" : [
                2
            ],
            "name" : "Node.002",
            "translation" : [
                0.017595211043953896,
                -0.016567356884479523,
                2.330692768096924
            ]
        },
        {
            "children" : [
                3
            ],
            "name" : "Node.001",
            "translation" : [
                -0.017595211043953896,
                0.016567356884479523,
                -2.330692768096924
            ]
        },
        {
            "children" : [
                4
            ],
            "name" : "Node",
            "rotation" : [
                0.7071068286895752,
                0,
                0,
                0.7071067094802856
            ]
        },
        {
            "name" : "headLight",
            "translation" : [
                -4.0734758377075195,
                2.0367379188537598,
                -2.0367379188537598
            ]
        },
        {
            "children" : [
                6
            ],
            "name" : "Camera.002",
            "rotation" : [
                0.5078175663948059,
                -0.22016426920890808,
                0.13606904447078705,
                0.8216655254364014
            ],
            "translation" : [
                -6.245501518249512,
                8.559820175170898,
                10.805058479309082
            ]
        },
        {
            "name" : "keyLight",
            "rotation" : [
                -0.7113733291625977,
                -0.11029914766550064,
                0.1598774641752243,
                0.6754416823387146
            ],
            "scale" : [
                0,
                1.4082348798183375e-07,
                4.1142120361328125
            ],
            "translation" : [
                -4.114150047302246,
                10.947574615478516,
                -4.114956855773926
            ]
        },
        {
            "name" : "Light.002",
            "rotation" : [
                0.16907575726509094,
                0.7558803558349609,
                -0.27217137813568115,
                0.570947527885437
            ],
            "translation" : [
                4.076245307922363,
                5.903861999511719,
                -1.0054539442062378
            ]
        },
        {
            "name" : "Camera.003",
            "rotation" : [
                0.483536034822464,
                0.33687159419059753,
                -0.20870360732078552,
                0.7804827094078064
            ],
            "translation" : [
                7.358891487121582,
                4.958309173583984,
                6.925790786743164
            ]
        },
        {
            "name" : "Light",
            "rotation" : [
                0.16907575726509094,
                0.7558803558349609,
                -0.27217137813568115,
                0.570947527885437
            ],
            "translation" : [
                4.076245307922363,
                5.903861999511719,
                -1.0054539442062378
            ]
        },
        {
            "name" : "Camera",
            "rotation" : [
                0.483536034822464,
                0.33687159419059753,
                -0.20870360732078552,
                0.7804827094078064
            ],
            "translation" : [
                7.358891487121582,
                4.958309173583984,
                6.925790786743164
            ]
        }
    ],
    "materials" : [
        {
            "doubleSided" : true,
            "emissiveFactor" : [
                0,
                0,
                0
            ],
            "name" : "BarrelCactus_mat",
            "pbrMetallicRoughness" : {
                "baseColorFactor" : [
                    0.5,
                    0.5,
                    0.5,
                    1
                ],
                "baseColorTexture" : {
                    "index" : 0,
                    "texCoord" : 0
                },
                "metallicFactor" : 0,
                "roughnessFactor" : 0.9699476361274719
            }
        }
    ],
    "meshes" : [
        {
            "name" : "buffer-0-mesh-0",
            "primitives" : [
                {
                    "attributes" : {
                        "POSITION" : 0,
                        "NORMAL" : 1,
                        "TEXCOORD_0" : 2
                    },
                    "indices" : 3,
                    "material" : 0
                }
            ]
        }
    ],
    "textures" : [
        {
            "source" : 0
        }
    ],
    "images" : [
        {
            "mimeType" : "image/png",
            "name" : "BarrelCactus_BaseColor",
            "uri" : "BarrelCactus_BaseColor.png"
        }
    ],
    "accessors" : [
        {
            "bufferView" : 0,
            "componentType" : 5126,
            "count" : 4200,
            "max" : [
                3.461169719696045,
                3.4619791507720947,
                2.7191390991210938
            ],
            "min" : [
                -3.4612953662872314,
                -3.4604878425598145,
                -2.3009791374206543
            ],
            "type" : "VEC3"
        },
        {
            "bufferView" : 1,
            "componentType" : 5126,
            "count" : 4200,
            "type" : "VEC3"
        },
        {
            "bufferView" : 2,
            "componentType" : 5126,
            "count" : 4200,
            "type" : "VEC2"
        },
        {
            "bufferView" : 3,
            "componentType" : 5123,
            "count" : 4200,
            "type" : "SCALAR"
        }
    ],
    "bufferViews" : [
        {
            "buffer" : 0,
            "byteLength" : 50400,
            "byteOffset" : 0
        },
        {
            "buffer" : 0,
            "byteLength" : 50400,
            "byteOffset" : 50400
        },
        {
            "buffer" : 0,
            "byteLength" : 33600,
            "byteOffset" : 100800
        },
        {
            "buffer" : 0,
            "byteLength" : 8400,
            "byteOffset" : 134400
        }
    ],
    "buffers" : [
        {
            "byteLength" : 142800,
            "uri" : "cactus_1.bin"
        }
    ]
}
