{
    "asset" : {
        "generator" : "Khronos glTF Blender I/O v1.1.46",
        "version" : "2.0"
    },
    "scene" : 0,
    "scenes" : [
        {
            "name" : "Scene",
            "nodes" : [
                0,
                1,
                4,
                6,
                7,
                11,
                13,
                14
            ]
        }
    ],
    "nodes" : [
        {
            "name" : "Light",
            "rotation" : [
                0.16907575726509094,
                0.7558803558349609,
                -0.27217137813568115,
                0.570947527885437
            ],
            "translation" : [
                4.076245307922363,
                5.903861999511719,
                -1.0054539442062378
            ]
        },
        {
            "name" : "Camera",
            "rotation" : [
                0.483536034822464,
                0.33687159419059753,
                -0.20870360732078552,
                0.7804827094078064
            ],
            "translation" : [
                7.358891487121582,
                4.958309173583984,
                6.925790786743164
            ]
        },
        {
            "name" : "Node.002",
            "translation" : [
                0.001361427246592939,
                -0.017559971660375595,
                1.0120620727539062
            ]
        },
        {
            "children" : [
                2
            ],
            "name" : "Node.001",
            "translation" : [
                -0.001361427246592939,
                0.017559971660375595,
                -1.0120620727539062
            ]
        },
        {
            "children" : [
                3
            ],
            "name" : "Node",
            "rotation" : [
                0.7071068286895752,
                0,
                0,
                0.7071067094802856
            ]
        },
        {
            "name" : "headLight",
            "translation" : [
                -1.5081653594970703,
                0.7540826797485352,
                -0.7540826797485352
            ]
        },
        {
            "children" : [
                5
            ],
            "name" : "Camera.001",
            "rotation" : [
                0.4365290105342865,
                0.5563240647315979,
                -0.556071400642395,
                0.4367270767688751
            ],
            "translation" : [
                2.9287099838256836,
                1.0130221843719482,
                -0.6989579796791077
            ]
        },
        {
            "name" : "keyLight",
            "rotation" : [
                -0.7113732099533081,
                -0.11029912531375885,
                0.1598774492740631,
                0.6754416823387146
            ],
            "scale" : [
                0,
                5.2138545925117796e-08,
                1.523247480392456
            ],
            "translation" : [
                -1.537704586982727,
                4.343642234802246,
                -1.4738506078720093
            ]
        },
        {
            "mesh" : 0,
            "name" : "node-0"
        },
        {
            "children" : [
                8
            ],
            "name" : "Node.005",
            "translation" : [
                -0.0498533695936203,
                0.0089366864413023,
                0.0652325451374054
            ]
        },
        {
            "children" : [
                9
            ],
            "name" : "Node.004",
            "translation" : [
                0.0498533695936203,
                -0.0089366864413023,
                -0.0652325451374054
            ]
        },
        {
            "children" : [
                10
            ],
            "name" : "Node.003",
            "rotation" : [
                0.7071068286895752,
                0,
                0,
                0.7071067094802856
            ]
        },
        {
            "name" : "headLight.001",
            "translation" : [
                -1.1617597341537476,
                0.5808798670768738,
                -0.5808798670768738
            ]
        },
        {
            "children" : [
                12
            ],
            "name" : "Camera.002",
            "rotation" : [
                0.5768251419067383,
                -0.014158408157527447,
                0.010000104084610939,
                0.8166837096214294
            ],
            "translation" : [
                -0.03580580651760101,
                0.9442569613456726,
                2.4670732021331787
            ]
        },
        {
            "name" : "keyLight.001",
            "rotation" : [
                -0.7113732695579529,
                -0.11029914021492004,
                0.15987743437290192,
                0.6754416823387146
            ],
            "scale" : [
                0,
                4.0163008918625565e-08,
                1.1733776330947876
            ],
            "translation" : [
                -1.174852728843689,
                2.352137565612793,
                -1.1735002994537354
            ]
        }
    ],
    "materials" : [
        {
            "alphaMode" : "BLEND",
            "doubleSided" : true,
            "emissiveFactor" : [
                0,
                0,
                0
            ],
            "name" : "None",
            "pbrMetallicRoughness" : {
                "baseColorFactor" : [
                    0.800000011920929,
                    0.800000011920929,
                    0.800000011920929,
                    1
                ],
                "baseColorTexture" : {
                    "index" : 0,
                    "texCoord" : 0
                },
                "metallicFactor" : 0,
                "roughnessFactor" : 1
            }
        }
    ],
    "meshes" : [
        {
            "name" : "buffer-0-mesh-0.001",
            "primitives" : [
                {
                    "attributes" : {
                        "POSITION" : 0,
                        "NORMAL" : 1,
                        "TEXCOORD_0" : 2
                    },
                    "indices" : 3,
                    "material" : 0
                }
            ]
        }
    ],
    "textures" : [
        {
            "source" : 0
        }
    ],
    "images" : [
        {
            "bufferView" : 4,
            "mimeType" : "image/png",
            "name" : "PUSHILIN_grass"
        }
    ],
    "accessors" : [
        {
            "bufferView" : 0,
            "componentType" : 5126,
            "count" : 1056,
            "max" : [
                0.841834306716919,
                0.6544681191444397,
                0.23359447717666626
            ],
            "min" : [
                -0.9762786626815796,
                -0.738856852054596,
                -0.8003334999084473
            ],
            "type" : "VEC3"
        },
        {
            "bufferView" : 1,
            "componentType" : 5126,
            "count" : 1056,
            "type" : "VEC3"
        },
        {
            "bufferView" : 2,
            "componentType" : 5126,
            "count" : 1056,
            "type" : "VEC2"
        },
        {
            "bufferView" : 3,
            "componentType" : 5123,
            "count" : 1056,
            "type" : "SCALAR"
        }
    ],
    "bufferViews" : [
        {
            "buffer" : 0,
            "byteLength" : 12672,
            "byteOffset" : 0
        },
        {
            "buffer" : 0,
            "byteLength" : 12672,
            "byteOffset" : 12672
        },
        {
            "buffer" : 0,
            "byteLength" : 8448,
            "byteOffset" : 25344
        },
        {
            "buffer" : 0,
            "byteLength" : 2112,
            "byteOffset" : 33792
        },
        {
            "buffer" : 0,
            "byteLength" : 216763,
            "byteOffset" : 35904
        }
    ],
    "buffers" : [
        {
            "byteLength" : 252668,
            "uri" : "data:application/octet-stream;base64,"
        }
    ]
}
