{
    "asset" : {
        "generator" : "Khronos glTF Blender I/O v1.1.46",
        "version" : "2.0"
    },
    "scene" : 0,
    "scenes" : [
        {
            "name" : "Scene",
            "nodes" : [
                0,
                1,
                5,
                7,
                8
            ]
        }
    ],
    "nodes" : [
        {
            "name" : "Light",
            "rotation" : [
                0.16907575726509094,
                0.7558803558349609,
                -0.27217137813568115,
                0.570947527885437
            ],
            "translation" : [
                4.076245307922363,
                5.903861999511719,
                -1.0054539442062378
            ]
        },
        {
            "name" : "Camera",
            "rotation" : [
                0.483536034822464,
                0.33687159419059753,
                -0.20870360732078552,
                0.7804827094078064
            ],
            "translation" : [
                7.358891487121582,
                4.958309173583984,
                6.925790786743164
            ]
        },
        {
            "mesh" : 0,
            "name" : "node_MeshObject-1083391424-PolyPaper9"
        },
        {
            "children" : [
                2
            ],
            "name" : "Node.002",
            "translation" : [
                -0.7779935598373413,
                0.05315884202718735,
                0.7658780217170715
            ]
        },
        {
            "children" : [
                3
            ],
            "name" : "Node.001",
            "translation" : [
                0.7779935598373413,
                -0.05315884202718735,
                -0.7658780217170715
            ]
        },
        {
            "children" : [
                4
            ],
            "name" : "Node",
            "rotation" : [
                0.7071068286895752,
                0,
                0,
                0.7071067094802856
            ]
        },
        {
            "name" : "headLight",
            "translation" : [
                -1.0508153438568115,
                0.5254076719284058,
                -0.5254076719284058
            ]
        },
        {
            "children" : [
                6
            ],
            "name" : "Camera.001",
            "rotation" : [
                0.1850680261850357,
                -0.3609650135040283,
                0.07332240045070648,
                0.9110861420631409
            ],
            "translation" : [
                0.34283411502838135,
                2.264380931854248,
                0.4096970558166504
            ]
        },
        {
            "name" : "keyLight",
            "rotation" : [
                -0.7113733887672424,
                -0.11029913276433945,
                0.15987743437290192,
                0.6754416227340698
            ],
            "scale" : [
                0,
                3.63275738379798e-08,
                1.0613240003585815
            ],
            "translation" : [
                -0.24893802404403687,
                3.1358301639556885,
                -1.1098524332046509
            ]
        }
    ],
    "materials" : [
        {
            "emissiveFactor" : [
                0,
                0,
                0
            ],
            "name" : "BlocksPaper_COLOR_0",
            "pbrMetallicRoughness" : {
                "metallicFactor" : 0,
                "roughnessFactor" : 0.6000000238418579
            }
        }
    ],
    "meshes" : [
        {
            "name" : "mesh_m0-PolyPaper9_-83418",
            "primitives" : [
                {
                    "attributes" : {
                        "POSITION" : 0,
                        "NORMAL" : 1,
                        "COLOR_0" : 2
                    },
                    "indices" : 3,
                    "material" : 0
                }
            ]
        }
    ],
    "accessors" : [
        {
            "bufferView" : 0,
            "componentType" : 5126,
            "count" : 3138,
            "max" : [
                0.134809672832489,
                0.24668976664543152,
                0.9454116821289062
            ],
            "min" : [
                -0.1444540023803711,
                -0.3092229962348938,
                -0.4849872589111328
            ],
            "type" : "VEC3"
        },
        {
            "bufferView" : 1,
            "componentType" : 5126,
            "count" : 3138,
            "type" : "VEC3"
        },
        {
            "bufferView" : 2,
            "componentType" : 5126,
            "count" : 3138,
            "type" : "VEC4"
        },
        {
            "bufferView" : 3,
            "componentType" : 5123,
            "count" : 3138,
            "type" : "SCALAR"
        }
    ],
    "bufferViews" : [
        {
            "buffer" : 0,
            "byteLength" : 37656,
            "byteOffset" : 0
        },
        {
            "buffer" : 0,
            "byteLength" : 37656,
            "byteOffset" : 37656
        },
        {
            "buffer" : 0,
            "byteLength" : 50208,
            "byteOffset" : 75312
        },
        {
            "buffer" : 0,
            "byteLength" : 6276,
            "byteOffset" : 125520
        }
    ],
    "buffers" : [
        {
            "byteLength" : 131796,
            "uri" : "data:application/octet-stream;base64,"
        }
    ]
}
