{
    "asset" : {
        "generator" : "Khronos glTF Blender I/O v1.1.46",
        "version" : "2.0"
    },
    "scene" : 0,
    "scenes" : [
        {
            "name" : "Scene",
            "nodes" : [
                0,
                1,
                4,
                6,
                7,
                11,
                13,
                14
            ]
        }
    ],
    "nodes" : [
        {
            "name" : "Light",
            "rotation" : [
                0.16907575726509094,
                0.7558803558349609,
                -0.27217137813568115,
                0.570947527885437
            ],
            "translation" : [
                4.076245307922363,
                5.903861999511719,
                -1.0054539442062378
            ]
        },
        {
            "name" : "Camera",
            "rotation" : [
                0.483536034822464,
                0.33687159419059753,
                -0.20870360732078552,
                0.7804827094078064
            ],
            "translation" : [
                7.358891487121582,
                4.958309173583984,
                6.925790786743164
            ]
        },
        {
            "name" : "Node.002",
            "translation" : [
                -0.7779935598373413,
                0.05315884202718735,
                0.7658780217170715
            ]
        },
        {
            "children" : [
                2
            ],
            "name" : "Node.001",
            "translation" : [
                0.7779935598373413,
                -0.05315884202718735,
                -0.7658780217170715
            ]
        },
        {
            "children" : [
                3
            ],
            "name" : "Node",
            "rotation" : [
                0.7071068286895752,
                0,
                0,
                0.7071067094802856
            ]
        },
        {
            "name" : "headLight",
            "translation" : [
                -1.0508153438568115,
                0.5254076719284058,
                -0.5254076719284058
            ]
        },
        {
            "children" : [
                5
            ],
            "name" : "Camera.001",
            "rotation" : [
                0.1850680261850357,
                -0.3609650135040283,
                0.07332240045070648,
                0.9110861420631409
            ],
            "translation" : [
                0.34283411502838135,
                2.264380931854248,
                0.4096970558166504
            ]
        },
        {
            "name" : "keyLight",
            "rotation" : [
                -0.7113733887672424,
                -0.11029913276433945,
                0.15987743437290192,
                0.6754416227340698
            ],
            "scale" : [
                0,
                3.63275738379798e-08,
                1.0613240003585815
            ],
            "translation" : [
                -0.24893802404403687,
                3.1358301639556885,
                -1.1098524332046509
            ]
        },
        {
            "mesh" : 0,
            "name" : "node_MeshObject-1993106432-PolyPaper21"
        },
        {
            "children" : [
                8
            ],
            "name" : "Node.005",
            "translation" : [
                -0.08657597005367279,
                1.1642793416976929,
                1.1754056215286255
            ]
        },
        {
            "children" : [
                9
            ],
            "name" : "Node.004",
            "translation" : [
                0.08657597005367279,
                -1.1642793416976929,
                -1.1754056215286255
            ]
        },
        {
            "children" : [
                10
            ],
            "name" : "Node.003",
            "rotation" : [
                0.7071068286895752,
                0,
                0,
                0.7071067094802856
            ]
        },
        {
            "name" : "headLight.001",
            "translation" : [
                -1.7691947221755981,
                0.8845973610877991,
                -0.8845973610877991
            ]
        },
        {
            "children" : [
                12
            ],
            "name" : "Camera.002",
            "rotation" : [
                0.5078175663948059,
                -0.22016426920890808,
                0.13606904447078705,
                0.8216655254364014
            ],
            "translation" : [
                -1.313490867614746,
                2.574406147003174,
                1.259908676147461
            ]
        },
        {
            "name" : "keyLight.001",
            "rotation" : [
                -0.7113732695579529,
                -0.11029912531375885,
                0.1598774492740631,
                0.6754416823387146
            ],
            "scale" : [
                0,
                6.116254525068143e-08,
                1.7868871688842773
            ],
            "translation" : [
                -1.673050045967102,
                4.953130722045898,
                -2.89274263381958
            ]
        }
    ],
    "materials" : [
        {
            "emissiveFactor" : [
                0,
                0,
                0
            ],
            "name" : "BlocksPaper_COLOR_0.001",
            "pbrMetallicRoughness" : {
                "metallicFactor" : 0,
                "roughnessFactor" : 0.6000000238418579
            }
        }
    ],
    "meshes" : [
        {
            "name" : "mesh_m0-PolyPaper21_-109966",
            "primitives" : [
                {
                    "attributes" : {
                        "POSITION" : 0,
                        "NORMAL" : 1,
                        "COLOR_0" : 2
                    },
                    "indices" : 3,
                    "material" : 0
                }
            ]
        }
    ],
    "accessors" : [
        {
            "bufferView" : 0,
            "componentType" : 5126,
            "count" : 12501,
            "max" : [
                0.7274621725082397,
                0.49336183071136475,
                1.6057853698730469
            ],
            "min" : [
                -0.7452396750450134,
                -0.5905190706253052,
                -1.2196972370147705
            ],
            "type" : "VEC3"
        },
        {
            "bufferView" : 1,
            "componentType" : 5126,
            "count" : 12501,
            "type" : "VEC3"
        },
        {
            "bufferView" : 2,
            "componentType" : 5126,
            "count" : 12501,
            "type" : "VEC4"
        },
        {
            "bufferView" : 3,
            "componentType" : 5123,
            "count" : 12501,
            "type" : "SCALAR"
        }
    ],
    "bufferViews" : [
        {
            "buffer" : 0,
            "byteLength" : 150012,
            "byteOffset" : 0
        },
        {
            "buffer" : 0,
            "byteLength" : 150012,
            "byteOffset" : 150012
        },
        {
            "buffer" : 0,
            "byteLength" : 200016,
            "byteOffset" : 300024
        },
        {
            "buffer" : 0,
            "byteLength" : 25002,
            "byteOffset" : 500040
        }
    ],
    "buffers" : [
        {
            "byteLength" : 525044,
            "uri" : "data:application/octet-stream;base64,"
        }
    ]
}
