{
    "asset" : {
        "generator" : "Khronos glTF Blender I/O v1.1.46",
        "version" : "2.0"
    },
    "scene" : 0,
    "scenes" : [
        {
            "name" : "Scene",
            "nodes" : [
                0,
                1,
                4,
                6,
                7,
                11,
                13,
                14
            ]
        }
    ],
    "nodes" : [
        {
            "name" : "Light",
            "rotation" : [
                0.16907575726509094,
                0.7558803558349609,
                -0.27217137813568115,
                0.570947527885437
            ],
            "translation" : [
                4.076245307922363,
                5.903861999511719,
                -1.0054539442062378
            ]
        },
        {
            "name" : "Camera",
            "rotation" : [
                0.483536034822464,
                0.33687159419059753,
                -0.20870360732078552,
                0.7804827094078064
            ],
            "translation" : [
                7.358891487121582,
                4.958309173583984,
                6.925790786743164
            ]
        },
        {
            "name" : "Node.002",
            "translation" : [
                -0.24179571866989136,
                1.021166205406189,
                1.2382898330688477
            ]
        },
        {
            "children" : [
                2
            ],
            "name" : "Node.001",
            "translation" : [
                0.24179571866989136,
                -1.021166205406189,
                -1.2382898330688477
            ]
        },
        {
            "children" : [
                3
            ],
            "name" : "Node",
            "rotation" : [
                0.7071068286895752,
                0,
                0,
                0.7071067094802856
            ]
        },
        {
            "name" : "headLight",
            "translation" : [
                -0.421669065952301,
                0.2108345329761505,
                -0.2108345329761505
            ]
        },
        {
            "children" : [
                5
            ],
            "name" : "Camera.001",
            "rotation" : [
                0.5824213624000549,
                -0.13005264103412628,
                0.09506620466709137,
                0.7967647314071655
            ],
            "translation" : [
                -0.0550348237156868,
                1.5357184410095215,
                -0.13593290746212006
            ]
        },
        {
            "name" : "keyLight",
            "rotation" : [
                -0.7113732695579529,
                -0.11029913276433945,
                0.1598774641752243,
                0.6754416823387146
            ],
            "scale" : [
                0,
                1.457745391064691e-08,
                0.4258858561515808
            ],
            "translation" : [
                -0.18298067152500153,
                2.1815357208251953,
                -1.459112524986267
            ]
        },
        {
            "mesh" : 0,
            "name" : "node-0"
        },
        {
            "children" : [
                8
            ],
            "name" : "Node.005",
            "translation" : [
                -0.006645322311669588,
                -0.017657138407230377,
                -0.22317111492156982
            ]
        },
        {
            "children" : [
                9
            ],
            "name" : "Node.004",
            "translation" : [
                0.006645322311669588,
                0.017657138407230377,
                0.22317111492156982
            ]
        },
        {
            "children" : [
                10
            ],
            "name" : "Node.003",
            "rotation" : [
                0.7071068286895752,
                0,
                0,
                0.7071067094802856
            ]
        },
        {
            "name" : "headLight.001",
            "translation" : [
                -1.3456512689590454,
                0.6728256344795227,
                -0.6728256344795227
            ]
        },
        {
            "children" : [
                12
            ],
            "name" : "Camera.002",
            "rotation" : [
                0.6813262701034546,
                -0.0007405305514112115,
                0.0006892855162732303,
                0.7319791913032532
            ],
            "translation" : [
                0.00037731454358436167,
                -0.01015461329370737,
                2.9806764125823975
            ]
        },
        {
            "name" : "keyLight.001",
            "rotation" : [
                -0.7113732695579529,
                -0.11029914021492004,
                0.1598774492740631,
                0.6754416823387146
            ],
            "scale" : [
                0,
                4.65202987243174e-08,
                1.3591082096099854
            ],
            "translation" : [
                -1.3587305545806885,
                2.708061933517456,
                -1.356952428817749
            ]
        }
    ],
    "materials" : [
        {
            "alphaMode" : "BLEND",
            "doubleSided" : true,
            "emissiveFactor" : [
                0,
                0,
                0
            ],
            "name" : "None",
            "pbrMetallicRoughness" : {
                "baseColorFactor" : [
                    0.6399999856948853,
                    0.6399999856948853,
                    0.6399999856948853,
                    1
                ],
                "baseColorTexture" : {
                    "index" : 0,
                    "texCoord" : 0
                },
                "metallicFactor" : 0,
                "roughnessFactor" : 1
            }
        }
    ],
    "meshes" : [
        {
            "name" : "buffer-0-mesh-0",
            "primitives" : [
                {
                    "attributes" : {
                        "POSITION" : 0,
                        "NORMAL" : 1,
                        "TEXCOORD_0" : 2
                    },
                    "indices" : 3,
                    "material" : 0
                }
            ]
        }
    ],
    "textures" : [
        {
            "source" : 0
        }
    ],
    "images" : [
        {
            "bufferView" : 4,
            "mimeType" : "image/png",
            "name" : "PUSHILIN_dead_tree"
        }
    ],
    "accessors" : [
        {
            "bufferView" : 0,
            "componentType" : 5126,
            "count" : 1824,
            "max" : [
                0.6172686219215393,
                0.7021108269691467,
                1.1990818977355957
            ],
            "min" : [
                -0.6663893461227417,
                -0.5364741683006287,
                -1.0325500965118408
            ],
            "type" : "VEC3"
        },
        {
            "bufferView" : 1,
            "componentType" : 5126,
            "count" : 1824,
            "type" : "VEC3"
        },
        {
            "bufferView" : 2,
            "componentType" : 5126,
            "count" : 1824,
            "type" : "VEC2"
        },
        {
            "bufferView" : 3,
            "componentType" : 5123,
            "count" : 1824,
            "type" : "SCALAR"
        }
    ],
    "bufferViews" : [
        {
            "buffer" : 0,
            "byteLength" : 21888,
            "byteOffset" : 0
        },
        {
            "buffer" : 0,
            "byteLength" : 21888,
            "byteOffset" : 21888
        },
        {
            "buffer" : 0,
            "byteLength" : 14592,
            "byteOffset" : 43776
        },
        {
            "buffer" : 0,
            "byteLength" : 3648,
            "byteOffset" : 58368
        },
        {
            "buffer" : 0,
            "byteLength" : 217591,
            "byteOffset" : 62016
        }
    ],
    "buffers" : [
        {
            "byteLength" : 279608,
            "uri" : "data:application/octet-stream;base64,"
        }
    ]
}
