{
    "asset" : {
        "generator" : "Khronos glTF Blender I/O v1.1.46",
        "version" : "2.0"
    },
    "scene" : 0,
    "scenes" : [
        {
            "name" : "Scene",
            "nodes" : [
                0,
                1,
                5,
                7,
                8
            ]
        }
    ],
    "nodes" : [
        {
            "name" : "Light",
            "rotation" : [
                0.16907575726509094,
                0.7558803558349609,
                -0.27217137813568115,
                0.570947527885437
            ],
            "translation" : [
                4.076245307922363,
                5.903861999511719,
                -1.0054539442062378
            ]
        },
        {
            "name" : "Camera",
            "rotation" : [
                0.483536034822464,
                0.33687159419059753,
                -0.20870360732078552,
                0.7804827094078064
            ],
            "translation" : [
                7.358891487121582,
                4.958309173583984,
                6.925790786743164
            ]
        },
        {
            "mesh" : 0,
            "name" : "node_MeshObject1833623552-PolyPaper4"
        },
        {
            "children" : [
                2
            ],
            "name" : "Node.002",
            "translation" : [
                -0.24179571866989136,
                1.021166205406189,
                1.2382898330688477
            ]
        },
        {
            "children" : [
                3
            ],
            "name" : "Node.001",
            "translation" : [
                0.24179571866989136,
                -1.021166205406189,
                -1.2382898330688477
            ]
        },
        {
            "children" : [
                4
            ],
            "name" : "Node",
            "rotation" : [
                0.7071068286895752,
                0,
                0,
                0.7071067094802856
            ]
        },
        {
            "name" : "headLight",
            "translation" : [
                -0.421669065952301,
                0.2108345329761505,
                -0.2108345329761505
            ]
        },
        {
            "children" : [
                6
            ],
            "name" : "Camera.001",
            "rotation" : [
                0.5824213624000549,
                -0.13005264103412628,
                0.09506620466709137,
                0.7967647314071655
            ],
            "translation" : [
                -0.0550348237156868,
                1.5357184410095215,
                -0.13593290746212006
            ]
        },
        {
            "name" : "keyLight",
            "rotation" : [
                -0.7113732695579529,
                -0.11029913276433945,
                0.1598774641752243,
                0.6754416823387146
            ],
            "scale" : [
                0,
                1.457745391064691e-08,
                0.4258858561515808
            ],
            "translation" : [
                -0.18298067152500153,
                2.1815357208251953,
                -1.459112524986267
            ]
        }
    ],
    "materials" : [
        {
            "emissiveFactor" : [
                0,
                0,
                0
            ],
            "name" : "BlocksPaper_COLOR_0",
            "pbrMetallicRoughness" : {
                "metallicFactor" : 0,
                "roughnessFactor" : 0.6000000238418579
            }
        }
    ],
    "meshes" : [
        {
            "name" : "mesh_m0-PolyPaper4_-40966",
            "primitives" : [
                {
                    "attributes" : {
                        "POSITION" : 0,
                        "NORMAL" : 1,
                        "COLOR_0" : 2
                    },
                    "indices" : 3,
                    "material" : 0
                }
            ]
        }
    ],
    "accessors" : [
        {
            "bufferView" : 0,
            "componentType" : 5126,
            "count" : 17694,
            "max" : [
                0.31306344270706177,
                0.2951843738555908,
                0.37189793586730957
            ],
            "min" : [
                -0.23743146657943726,
                -0.23218119144439697,
                -0.19356143474578857
            ],
            "type" : "VEC3"
        },
        {
            "bufferView" : 1,
            "componentType" : 5126,
            "count" : 17694,
            "type" : "VEC3"
        },
        {
            "bufferView" : 2,
            "componentType" : 5126,
            "count" : 17694,
            "type" : "VEC4"
        },
        {
            "bufferView" : 3,
            "componentType" : 5123,
            "count" : 17694,
            "type" : "SCALAR"
        }
    ],
    "bufferViews" : [
        {
            "buffer" : 0,
            "byteLength" : 212328,
            "byteOffset" : 0
        },
        {
            "buffer" : 0,
            "byteLength" : 212328,
            "byteOffset" : 212328
        },
        {
            "buffer" : 0,
            "byteLength" : 283104,
            "byteOffset" : 424656
        },
        {
            "buffer" : 0,
            "byteLength" : 35388,
            "byteOffset" : 707760
        }
    ],
    "buffers" : [
        {
            "byteLength" : 743148,
            "uri" : "data:application/octet-stream;base64,"
        }
    ]
}
