{
    "asset" : {
        "generator" : "Khronos glTF Blender I/O v1.2.75",
        "version" : "2.0"
    },
    "scene" : 0,
    "scenes" : [
        {
            "name" : "Scene",
            "nodes" : [
                2,
                4,
                5,
                6,
                7,
                11,
                13,
                14,
                15,
                16
            ]
        }
    ],
    "nodes" : [
        {
            "name" : "Node_3",
            "translation" : [
                0.020716790109872818,
                0.005660237278789282,
                -0.013346806168556213
            ]
        },
        {
            "children" : [
                0
            ],
            "name" : "Node_2",
            "translation" : [
                -0.020716790109872818,
                -0.005660237278789282,
                0.013346806168556213
            ]
        },
        {
            "children" : [
                1
            ],
            "name" : "Node_1"
        },
        {
            "name" : "headLightNode",
            "translation" : [
                -1.082015037536621,
                0.5410075187683105,
                -0.5410075187683105
            ]
        },
        {
            "children" : [
                3
            ],
            "name" : "Camera.001",
            "rotation" : [
                0.7058309316635132,
                0.002872140845283866,
                -0.002861851593479514,
                0.7083686590194702
            ],
            "translation" : [
                -0.00046213960740715265,
                0.0033433111384510994,
                2.5365359783172607
            ]
        },
        {
            "name" : "keyLightNode",
            "rotation" : [
                -0.14607977867126465,
                -0.26535338163375854,
                0.26535338163375854,
                0.9153337478637695
            ],
            "scale" : [
                0,
                1.0928351879119873,
                0
            ],
            "translation" : [
                -1.0932972431182861,
                2.189013719558716,
                -1.0926276445388794
            ]
        },
        {
            "name" : "Light.001",
            "rotation" : [
                0.16907575726509094,
                0.7558803558349609,
                -0.27217137813568115,
                0.570947527885437
            ],
            "translation" : [
                4.076245307922363,
                5.903861999511719,
                -1.0054539442062378
            ]
        },
        {
            "name" : "Camera.002",
            "rotation" : [
                0.483536034822464,
                0.33687159419059753,
                -0.20870360732078552,
                0.7804827094078064
            ],
            "translation" : [
                7.358891487121582,
                4.958309173583984,
                6.925790786743164
            ]
        },
        {
            "mesh" : 0,
            "name" : "node_MeshObject-331592576-PolyPaper9",
            "rotation" : [
                0,
                -0.04791155457496643,
                0,
                0.9988515973091125
            ]
        },
        {
            "children" : [
                8
            ],
            "name" : "Node.002",
            "translation" : [
                0.17845392227172852,
                -1.4888273477554321,
                1.8140302896499634
            ]
        },
        {
            "children" : [
                9
            ],
            "name" : "Node.001",
            "translation" : [
                -0.17845392227172852,
                1.4888273477554321,
                -1.8140302896499634
            ]
        },
        {
            "children" : [
                10
            ],
            "name" : "Node",
            "rotation" : [
                0.7071068286895752,
                0,
                0,
                0.7071067094802856
            ]
        },
        {
            "name" : "headLight",
            "translation" : [
                -0.9724716544151306,
                0.4862358272075653,
                -0.4862358272075653
            ]
        },
        {
            "children" : [
                12
            ],
            "name" : "Camera.003",
            "rotation" : [
                0.56911301612854,
                0.1183038130402565,
                -0.08317858725786209,
                0.8094416856765747
            ],
            "translation" : [
                0.3112284243106842,
                2.3852922916412354,
                3.287875175476074
            ]
        },
        {
            "name" : "keyLight",
            "rotation" : [
                -0.7113732695579529,
                -0.11029911786317825,
                0.1598774939775467,
                0.6754417419433594
            ],
            "scale" : [
                0,
                3.361915545951888e-08,
                0.9821965098381042
            ],
            "translation" : [
                -1.1609718799591064,
                3.8295605182647705,
                0.5013148188591003
            ]
        },
        {
            "name" : "Light",
            "rotation" : [
                0.16907575726509094,
                0.7558803558349609,
                -0.27217137813568115,
                0.570947527885437
            ],
            "translation" : [
                4.076245307922363,
                5.903861999511719,
                -1.0054539442062378
            ]
        },
        {
            "name" : "Camera",
            "rotation" : [
                0.483536034822464,
                0.33687159419059753,
                -0.20870360732078552,
                0.7804827094078064
            ],
            "translation" : [
                7.358891487121582,
                4.958309173583984,
                6.925790786743164
            ]
        }
    ],
    "materials" : [
        {
            "emissiveFactor" : [
                0,
                0,
                0
            ],
            "name" : "BlocksPaper_COLOR_0",
            "pbrMetallicRoughness" : {
                "metallicFactor" : 0,
                "roughnessFactor" : 0.6000000238418579
            }
        }
    ],
    "meshes" : [
        {
            "name" : "mesh_m0-PolyPaper9_-453574",
            "primitives" : [
                {
                    "attributes" : {
                        "POSITION" : 0,
                        "NORMAL" : 1,
                        "COLOR_0" : 2
                    },
                    "indices" : 3,
                    "material" : 0
                }
            ]
        }
    ],
    "accessors" : [
        {
            "bufferView" : 0,
            "componentType" : 5126,
            "count" : 10992,
            "max" : [
                0.3683544397354126,
                0.37948155403137207,
                0.6525368094444275
            ],
            "min" : [
                -0.44248220324516296,
                -0.43537259101867676,
                -0.7654261589050293
            ],
            "type" : "VEC3"
        },
        {
            "bufferView" : 1,
            "componentType" : 5126,
            "count" : 10992,
            "type" : "VEC3"
        },
        {
            "bufferView" : 2,
            "componentType" : 5126,
            "count" : 10992,
            "type" : "VEC4"
        },
        {
            "bufferView" : 3,
            "componentType" : 5123,
            "count" : 10992,
            "type" : "SCALAR"
        }
    ],
    "bufferViews" : [
        {
            "buffer" : 0,
            "byteLength" : 131904,
            "byteOffset" : 0
        },
        {
            "buffer" : 0,
            "byteLength" : 131904,
            "byteOffset" : 131904
        },
        {
            "buffer" : 0,
            "byteLength" : 175872,
            "byteOffset" : 263808
        },
        {
            "buffer" : 0,
            "byteLength" : 21984,
            "byteOffset" : 439680
        }
    ],
    "buffers" : [
        {
            "byteLength" : 461664,
            "uri" : "model.bin"
        }
    ]
}
