{
    "asset" : {
        "generator" : "Khronos glTF Blender I/O v1.2.75",
        "version" : "2.0"
    },
    "scene" : 0,
    "scenes" : [
        {
            "name" : "Scene",
            "nodes" : [
                0,
                1,
                2,
                3,
                6,
                8,
                9,
                12,
                14,
                15,
                19,
                21,
                22,
                23,
                24,
                25,
                26
            ]
        }
    ],
    "nodes" : [
        {
            "name" : "Light.001",
            "rotation" : [
                0.16907575726509094,
                0.7558803558349609,
                -0.27217137813568115,
                0.570947527885437
            ],
            "translation" : [
                4.076245307922363,
                5.903861999511719,
                -1.0054539442062378
            ]
        },
        {
            "name" : "Camera.001",
            "rotation" : [
                0.483536034822464,
                0.33687159419059753,
                -0.20870360732078552,
                0.7804827094078064
            ],
            "translation" : [
                7.358891487121582,
                4.958309173583984,
                6.925790786743164
            ]
        },
        {
            "name" : "Light.002",
            "rotation" : [
                0.5232754945755005,
                0.34203392267227173,
                -0.7269423604011536,
                0.284166157245636
            ],
            "translation" : [
                4.076245307922363,
                5.903862476348877,
                -1.0054532289505005
            ]
        },
        {
            "name" : "Camera.002",
            "rotation" : [
                0.8937963247299194,
                0.09062855690717697,
                -0.3857799172401428,
                0.20997287333011627
            ],
            "translation" : [
                7.358891487121582,
                4.958308696746826,
                6.925792217254639
            ]
        },
        {
            "name" : "Node.002",
            "translation" : [
                0.322020024061203,
                -1.5762747526168823,
                -1.3970283269882202
            ]
        },
        {
            "children" : [
                4
            ],
            "name" : "Node.001",
            "translation" : [
                -0.322020024061203,
                1.5762747526168823,
                1.3970283269882202
            ]
        },
        {
            "children" : [
                5
            ],
            "name" : "Node",
            "rotation" : [
                1,
                0,
                0,
                -1.3435885648505064e-07
            ]
        },
        {
            "name" : "headLight",
            "translation" : [
                -3.1344566345214844,
                -1.5672283172607422,
                -1.5672283172607422
            ]
        },
        {
            "children" : [
                7
            ],
            "name" : "Camera.003",
            "rotation" : [
                0.9400865435600281,
                -0.059464454650878906,
                0.2518949508666992,
                0.22192396223545074
            ],
            "translation" : [
                -3.646010637283325,
                1.7476906776428223,
                4.359921932220459
            ]
        },
        {
            "name" : "keyLight",
            "rotation" : [
                -0.4425837993621826,
                -0.10290312767028809,
                0.06944755464792252,
                0.888092041015625
            ],
            "scale" : [
                0,
                3.1658031940460205,
                1.0836083674803376e-07
            ],
            "translation" : [
                -3.499011516571045,
                4.4875383377075195,
                -4.580898284912109
            ]
        },
        {
            "name" : "Node.005",
            "translation" : [
                0.04609955847263336,
                -0.0001686175965005532,
                6.116199016571045
            ]
        },
        {
            "children" : [
                10
            ],
            "name" : "Node.004",
            "translation" : [
                -0.04609955847263336,
                0.0001686175965005532,
                -6.116199016571045
            ]
        },
        {
            "children" : [
                11
            ],
            "name" : "Node.003",
            "rotation" : [
                0.7071068286895752,
                0,
                0,
                0.7071067094802856
            ]
        },
        {
            "name" : "headLight.001",
            "translation" : [
                -7.03363037109375,
                3.516815185546875,
                -3.516815185546875
            ]
        },
        {
            "children" : [
                13
            ],
            "name" : "Camera.004",
            "rotation" : [
                0.5078175663948059,
                -0.22016426920890808,
                0.13606904447078705,
                0.8216655254364014
            ],
            "translation" : [
                -5.472286701202393,
                11.538851737976074,
                9.394217491149902
            ]
        },
        {
            "name" : "keyLight.001",
            "rotation" : [
                -0.7113732695579529,
                -0.11029912531375885,
                0.1598774641752243,
                0.6754416823387146
            ],
            "scale" : [
                0,
                2.431584960049804e-07,
                7.103969573974609
            ],
            "translation" : [
                -7.21300745010376,
                20.551517486572266,
                -7.07016658782959
            ]
        },
        {
            "mesh" : 0,
            "name" : "node-0",
            "scale" : [
                0.29805251955986023,
                0.29805251955986023,
                0.29805251955986023
            ],
            "translation" : [
                0,
                0,
                -3.294252395629883
            ]
        },
        {
            "children" : [
                16
            ],
            "name" : "Node.008",
            "translation" : [
                -0.215479776263237,
                -0.2740134596824646,
                13.94511890411377
            ]
        },
        {
            "children" : [
                17
            ],
            "name" : "Node.007",
            "translation" : [
                0.215479776263237,
                0.2740134596824646,
                -13.94511890411377
            ]
        },
        {
            "children" : [
                18
            ],
            "name" : "Node.006",
            "rotation" : [
                0.7071068286895752,
                0,
                0,
                0.7071067094802856
            ]
        },
        {
            "name" : "headLight.002",
            "translation" : [
                -14.702987670898438,
                7.351493835449219,
                -7.351493835449219
            ]
        },
        {
            "children" : [
                20
            ],
            "name" : "Camera.005",
            "rotation" : [
                0.5078175663948059,
                -0.22016426920890808,
                0.13606904447078705,
                0.8216655254364014
            ],
            "translation" : [
                -9.688752174377441,
                22.026792526245117,
                17.333984375
            ]
        },
        {
            "name" : "keyLight.002",
            "rotation" : [
                -0.7113732695579529,
                -0.11029912531375885,
                0.1598774492740631,
                0.6754416823387146
            ],
            "scale" : [
                0,
                5.082946472612093e-07,
                14.850022315979004
            ],
            "translation" : [
                -14.761284828186035,
                43.05815887451172,
                -14.916537284851074
            ]
        },
        {
            "name" : "Light.003",
            "rotation" : [
                0.16907575726509094,
                0.7558803558349609,
                -0.27217137813568115,
                0.570947527885437
            ],
            "translation" : [
                4.076245307922363,
                5.903861999511719,
                -1.0054539442062378
            ]
        },
        {
            "name" : "Camera.006",
            "rotation" : [
                0.483536034822464,
                0.33687159419059753,
                -0.20870360732078552,
                0.7804827094078064
            ],
            "translation" : [
                7.358891487121582,
                4.958309173583984,
                6.925790786743164
            ]
        },
        {
            "name" : "Light",
            "rotation" : [
                0.16907575726509094,
                0.7558803558349609,
                -0.27217137813568115,
                0.570947527885437
            ],
            "translation" : [
                4.076245307922363,
                5.903861999511719,
                -1.0054539442062378
            ]
        },
        {
            "name" : "Camera",
            "rotation" : [
                0.483536034822464,
                0.33687159419059753,
                -0.20870360732078552,
                0.7804827094078064
            ],
            "translation" : [
                7.358891487121582,
                4.958309173583984,
                6.925790786743164
            ]
        }
    ],
    "materials" : [
        {
            "doubleSided" : true,
            "emissiveFactor" : [
                0,
                0,
                0
            ],
            "name" : "AlexandraPalmTree_mat",
            "pbrMetallicRoughness" : {
                "baseColorFactor" : [
                    0.5,
                    0.5,
                    0.5,
                    1
                ],
                "baseColorTexture" : {
                    "index" : 0,
                    "texCoord" : 0
                },
                "metallicFactor" : 0,
                "roughnessFactor" : 0.9699476361274719
            }
        }
    ],
    "meshes" : [
        {
            "name" : "buffer-0-mesh-0.001",
            "primitives" : [
                {
                    "attributes" : {
                        "POSITION" : 0,
                        "NORMAL" : 1,
                        "TEXCOORD_0" : 2
                    },
                    "indices" : 3,
                    "material" : 0
                }
            ]
        }
    ],
    "textures" : [
        {
            "source" : 0
        }
    ],
    "images" : [
        {
            "bufferView" : 4,
            "mimeType" : "image/png",
            "name" : "AlexandraPalmTree_BaseColor"
        }
    ],
    "accessors" : [
        {
            "bufferView" : 0,
            "componentType" : 5126,
            "count" : 6636,
            "max" : [
                7.9382452964782715,
                6.540472030639648,
                13.358041763305664
            ],
            "min" : [
                -6.6731743812561035,
                -5.924688816070557,
                -6.39808464050293
            ],
            "type" : "VEC3"
        },
        {
            "bufferView" : 1,
            "componentType" : 5126,
            "count" : 6636,
            "type" : "VEC3"
        },
        {
            "bufferView" : 2,
            "componentType" : 5126,
            "count" : 6636,
            "type" : "VEC2"
        },
        {
            "bufferView" : 3,
            "componentType" : 5123,
            "count" : 6636,
            "type" : "SCALAR"
        }
    ],
    "bufferViews" : [
        {
            "buffer" : 0,
            "byteLength" : 79632,
            "byteOffset" : 0
        },
        {
            "buffer" : 0,
            "byteLength" : 79632,
            "byteOffset" : 79632
        },
        {
            "buffer" : 0,
            "byteLength" : 53088,
            "byteOffset" : 159264
        },
        {
            "buffer" : 0,
            "byteLength" : 13272,
            "byteOffset" : 212352
        },
        {
            "buffer" : 0,
            "byteLength" : 2281474,
            "byteOffset" : 225624
        }
    ],
    "buffers" : [
        {
            "byteLength" : 2507100,
            "uri" : "data:application/octet-stream;base64,"
        }
    ]
}
