{
    "asset" : {
        "generator" : "Khronos glTF Blender I/O v1.1.46",
        "version" : "2.0"
    },
    "scene" : 0,
    "scenes" : [
        {
            "name" : "Scene",
            "nodes" : [
                0,
                1,
                2,
                8,
                10,
                11
            ]
        }
    ],
    "nodes" : [
        {
            "name" : "Light",
            "rotation" : [
                0.16907575726509094,
                0.7558803558349609,
                -0.27217137813568115,
                0.570947527885437
            ],
            "translation" : [
                4.076245307922363,
                5.903861999511719,
                -1.0054539442062378
            ]
        },
        {
            "name" : "Camera",
            "rotation" : [
                0.483536034822464,
                0.33687159419059753,
                -0.20870360732078552,
                0.7804827094078064
            ],
            "translation" : [
                7.358891487121582,
                4.958309173583984,
                6.925790786743164
            ]
        },
        {
            "name" : "Node",
            "rotation" : [
                0.7071068286895752,
                0,
                0,
                0.7071067094802856
            ]
        },
        {
            "mesh" : 0,
            "name" : "node_MeshObject-1422537664-PolyPaper9"
        },
        {
            "mesh" : 1,
            "name" : "node_MeshObject1316269440-PolyPaper9"
        },
        {
            "mesh" : 2,
            "name" : "node_MeshObject1390298880-PolyPaper9"
        },
        {
            "children" : [
                3,
                4,
                5
            ],
            "name" : "Node.003",
            "translation" : [
                -0.41959455609321594,
                0.28038087487220764,
                1.6301952600479126
            ]
        },
        {
            "children" : [
                6
            ],
            "name" : "Node.002",
            "translation" : [
                0.41959455609321594,
                -0.28038087487220764,
                -1.6301952600479126
            ]
        },
        {
            "children" : [
                7
            ],
            "name" : "Node.001",
            "rotation" : [
                0.7071068286895752,
                0,
                0,
                0.7071067094802856
            ]
        },
        {
            "name" : "headLight",
            "translation" : [
                -2.3516838550567627,
                1.1758419275283813,
                -1.1758419275283813
            ]
        },
        {
            "children" : [
                9
            ],
            "name" : "Camera.001",
            "rotation" : [
                0.5491986274719238,
                0.36688658595085144,
                -0.2911284267902374,
                0.6921122670173645
            ],
            "translation" : [
                5.006375789642334,
                2.605616331100464,
                2.991521120071411
            ]
        },
        {
            "name" : "keyLight",
            "rotation" : [
                -0.7113732695579529,
                -0.11029914021492004,
                0.15987743437290192,
                0.6754416823387146
            ],
            "scale" : [
                0,
                8.129968875891791e-08,
                2.3752012252807617
            ],
            "translation" : [
                -1.9666110277175903,
                6.3682990074157715,
                -2.6764304637908936
            ]
        }
    ],
    "materials" : [
        {
            "emissiveFactor" : [
                0,
                0,
                0
            ],
            "name" : "BlocksPaper_COLOR_0.002",
            "pbrMetallicRoughness" : {
                "metallicFactor" : 0,
                "roughnessFactor" : 0.6000000238418579
            }
        }
    ],
    "meshes" : [
        {
            "name" : "mesh_m0-PolyPaper9_-327558",
            "primitives" : [
                {
                    "attributes" : {
                        "POSITION" : 0,
                        "NORMAL" : 1,
                        "COLOR_0" : 2
                    },
                    "indices" : 3,
                    "material" : 0
                }
            ]
        },
        {
            "name" : "mesh_m1-PolyPaper9_-327510",
            "primitives" : [
                {
                    "attributes" : {
                        "POSITION" : 4,
                        "NORMAL" : 5,
                        "COLOR_0" : 6
                    },
                    "indices" : 7,
                    "material" : 0
                }
            ]
        },
        {
            "name" : "mesh_m2-PolyPaper9_-327562",
            "primitives" : [
                {
                    "attributes" : {
                        "POSITION" : 8,
                        "NORMAL" : 9,
                        "COLOR_0" : 10
                    },
                    "indices" : 11,
                    "material" : 0
                }
            ]
        }
    ],
    "accessors" : [
        {
            "bufferView" : 0,
            "componentType" : 5126,
            "count" : 11184,
            "max" : [
                1.2562744617462158,
                1.2485566139221191,
                2.008471965789795
            ],
            "min" : [
                -1.2062225341796875,
                -1.0974109172821045,
                -0.9771698713302612
            ],
            "type" : "VEC3"
        },
        {
            "bufferView" : 1,
            "componentType" : 5126,
            "count" : 11184,
            "type" : "VEC3"
        },
        {
            "bufferView" : 2,
            "componentType" : 5126,
            "count" : 11184,
            "type" : "VEC4"
        },
        {
            "bufferView" : 3,
            "componentType" : 5123,
            "count" : 11184,
            "type" : "SCALAR"
        },
        {
            "bufferView" : 4,
            "componentType" : 5126,
            "count" : 11196,
            "max" : [
                1.0530333518981934,
                0.9621334075927734,
                2.1177353858947754
            ],
            "min" : [
                -0.8982716798782349,
                -0.7155364751815796,
                -0.8801137208938599
            ],
            "type" : "VEC3"
        },
        {
            "bufferView" : 5,
            "componentType" : 5126,
            "count" : 11196,
            "type" : "VEC3"
        },
        {
            "bufferView" : 6,
            "componentType" : 5126,
            "count" : 11196,
            "type" : "VEC4"
        },
        {
            "bufferView" : 7,
            "componentType" : 5123,
            "count" : 11196,
            "type" : "SCALAR"
        },
        {
            "bufferView" : 8,
            "componentType" : 5126,
            "count" : 540,
            "max" : [
                0.096686452627182,
                0.21106946468353271,
                0.3960866928100586
            ],
            "min" : [
                -0.17554372549057007,
                -0.2830789089202881,
                -0.4003167152404785
            ],
            "type" : "VEC3"
        },
        {
            "bufferView" : 9,
            "componentType" : 5126,
            "count" : 540,
            "type" : "VEC3"
        },
        {
            "bufferView" : 10,
            "componentType" : 5126,
            "count" : 540,
            "type" : "VEC4"
        },
        {
            "bufferView" : 11,
            "componentType" : 5123,
            "count" : 540,
            "type" : "SCALAR"
        }
    ],
    "bufferViews" : [
        {
            "buffer" : 0,
            "byteLength" : 134208,
            "byteOffset" : 0
        },
        {
            "buffer" : 0,
            "byteLength" : 134208,
            "byteOffset" : 134208
        },
        {
            "buffer" : 0,
            "byteLength" : 178944,
            "byteOffset" : 268416
        },
        {
            "buffer" : 0,
            "byteLength" : 22368,
            "byteOffset" : 447360
        },
        {
            "buffer" : 0,
            "byteLength" : 134352,
            "byteOffset" : 469728
        },
        {
            "buffer" : 0,
            "byteLength" : 134352,
            "byteOffset" : 604080
        },
        {
            "buffer" : 0,
            "byteLength" : 179136,
            "byteOffset" : 738432
        },
        {
            "buffer" : 0,
            "byteLength" : 22392,
            "byteOffset" : 917568
        },
        {
            "buffer" : 0,
            "byteLength" : 6480,
            "byteOffset" : 939960
        },
        {
            "buffer" : 0,
            "byteLength" : 6480,
            "byteOffset" : 946440
        },
        {
            "buffer" : 0,
            "byteLength" : 8640,
            "byteOffset" : 952920
        },
        {
            "buffer" : 0,
            "byteLength" : 1080,
            "byteOffset" : 961560
        }
    ],
    "buffers" : [
        {
            "byteLength" : 962640,
            "uri" : "data:application/octet-stream;base64,"
        }
    ]
}
