{
    "asset" : {
        "generator" : "Khronos glTF Blender I/O v1.2.75",
        "version" : "2.0"
    },
    "scene" : 0,
    "scenes" : [
        {
            "name" : "Scene",
            "nodes" : [
                0,
                1,
                2,
                3,
                4,
                5,
                6,
                7,
                8
            ]
        }
    ],
    "nodes" : [
        {
            "mesh" : 0,
            "name" : "node_MeshObject-1927842816-PolyPaper19",
            "rotation" : [
                0,
                0,
                0,
                -6.332993507385254e-08
            ],
            "scale" : [
                3.685823917388916,
                3.685823917388916,
                3.685823917388916
            ],
            "translation" : [
                0,
                0.2776336371898651,
                0
            ]
        },
        {
            "name" : "Light.001",
            "rotation" : [
                0.16907575726509094,
                0.7558803558349609,
                -0.27217137813568115,
                0.570947527885437
            ],
            "translation" : [
                4.076245307922363,
                5.903861999511719,
                -1.0054539442062378
            ]
        },
        {
            "name" : "Camera.001",
            "rotation" : [
                0.483536034822464,
                0.33687159419059753,
                -0.20870360732078552,
                0.7804827094078064
            ],
            "translation" : [
                7.358891487121582,
                4.958309173583984,
                6.925790786743164
            ]
        },
        {
            "mesh" : 1,
            "name" : "node_MeshObject-1927842816-PolyPaper19.001",
            "rotation" : [
                0,
                0,
                0,
                -6.332993507385254e-08
            ],
            "scale" : [
                3.685823917388916,
                3.685823917388916,
                3.685823917388916
            ],
            "translation" : [
                0.6174028515815735,
                0.2776336371898651,
                -0.9929828643798828
            ]
        },
        {
            "mesh" : 2,
            "name" : "node_MeshObject-1927842816-PolyPaper19.002",
            "rotation" : [
                0,
                0,
                0,
                -6.332993507385254e-08
            ],
            "scale" : [
                3.685823917388916,
                3.685823917388916,
                3.685823917388916
            ],
            "translation" : [
                -0.833425760269165,
                0.2776336371898651,
                0.8815842866897583
            ]
        },
        {
            "mesh" : 3,
            "name" : "node_MeshObject-1927842816-PolyPaper19.003",
            "rotation" : [
                0,
                0,
                0,
                -6.332993507385254e-08
            ],
            "scale" : [
                3.685823917388916,
                3.685823917388916,
                3.685823917388916
            ],
            "translation" : [
                -1.0451252460479736,
                0.2776336967945099,
                -0.9403433799743652
            ]
        },
        {
            "mesh" : 4,
            "name" : "node_MeshObject-1927842816-PolyPaper19.004",
            "rotation" : [
                0,
                0,
                0,
                -6.332993507385254e-08
            ],
            "scale" : [
                3.685823917388916,
                3.685823917388916,
                3.685823917388916
            ],
            "translation" : [
                1.0019397735595703,
                0.2776336371898651,
                0.891278088092804
            ]
        },
        {
            "name" : "Light",
            "rotation" : [
                0.16907575726509094,
                0.7558803558349609,
                -0.27217137813568115,
                0.570947527885437
            ],
            "translation" : [
                4.076245307922363,
                5.903861999511719,
                -1.0054539442062378
            ]
        },
        {
            "name" : "Camera",
            "rotation" : [
                0.483536034822464,
                0.33687159419059753,
                -0.20870360732078552,
                0.7804827094078064
            ],
            "translation" : [
                7.358891487121582,
                4.958309173583984,
                6.925790786743164
            ]
        }
    ],
    "materials" : [
        {
            "emissiveFactor" : [
                0,
                0,
                0
            ],
            "name" : "BlocksPaper",
            "pbrMetallicRoughness" : {
                "metallicFactor" : 0,
                "roughnessFactor" : 0.6000000238418579
            }
        }
    ],
    "meshes" : [
        {
            "name" : "mesh_m0-PolyPaper19_-860402",
            "primitives" : [
                {
                    "attributes" : {
                        "POSITION" : 0,
                        "NORMAL" : 1,
                        "COLOR_0" : 2
                    },
                    "indices" : 3,
                    "material" : 0
                }
            ]
        },
        {
            "name" : "mesh_m0-PolyPaper19_-860402.001",
            "primitives" : [
                {
                    "attributes" : {
                        "POSITION" : 4,
                        "NORMAL" : 5,
                        "COLOR_0" : 6
                    },
                    "indices" : 3,
                    "material" : 0
                }
            ]
        },
        {
            "name" : "mesh_m0-PolyPaper19_-860402.002",
            "primitives" : [
                {
                    "attributes" : {
                        "POSITION" : 7,
                        "NORMAL" : 8,
                        "COLOR_0" : 9
                    },
                    "indices" : 3,
                    "material" : 0
                }
            ]
        },
        {
            "name" : "mesh_m0-PolyPaper19_-860402.003",
            "primitives" : [
                {
                    "attributes" : {
                        "POSITION" : 10,
                        "NORMAL" : 11,
                        "COLOR_0" : 12
                    },
                    "indices" : 3,
                    "material" : 0
                }
            ]
        },
        {
            "name" : "mesh_m0-PolyPaper19_-860402.004",
            "primitives" : [
                {
                    "attributes" : {
                        "POSITION" : 13,
                        "NORMAL" : 14,
                        "COLOR_0" : 15
                    },
                    "indices" : 3,
                    "material" : 0
                }
            ]
        }
    ],
    "accessors" : [
        {
            "bufferView" : 0,
            "componentType" : 5126,
            "count" : 6468,
            "max" : [
                0.09610599279403687,
                0.1378621757030487,
                0.10903525352478027
            ],
            "min" : [
                -0.15642249584197998,
                -0.20140334963798523,
                -0.10170221328735352
            ],
            "type" : "VEC3"
        },
        {
            "bufferView" : 1,
            "componentType" : 5126,
            "count" : 6468,
            "type" : "VEC3"
        },
        {
            "bufferView" : 2,
            "componentType" : 5126,
            "count" : 6468,
            "type" : "VEC4"
        },
        {
            "bufferView" : 3,
            "componentType" : 5123,
            "count" : 6468,
            "type" : "SCALAR"
        },
        {
            "bufferView" : 4,
            "componentType" : 5126,
            "count" : 6468,
            "max" : [
                0.09610599279403687,
                0.1378621757030487,
                0.10903525352478027
            ],
            "min" : [
                -0.15642249584197998,
                -0.20140334963798523,
                -0.10170221328735352
            ],
            "type" : "VEC3"
        },
        {
            "bufferView" : 5,
            "componentType" : 5126,
            "count" : 6468,
            "type" : "VEC3"
        },
        {
            "bufferView" : 6,
            "componentType" : 5126,
            "count" : 6468,
            "type" : "VEC4"
        },
        {
            "bufferView" : 7,
            "componentType" : 5126,
            "count" : 6468,
            "max" : [
                0.09610599279403687,
                0.1378621757030487,
                0.10903525352478027
            ],
            "min" : [
                -0.15642249584197998,
                -0.20140334963798523,
                -0.10170221328735352
            ],
            "type" : "VEC3"
        },
        {
            "bufferView" : 8,
            "componentType" : 5126,
            "count" : 6468,
            "type" : "VEC3"
        },
        {
            "bufferView" : 9,
            "componentType" : 5126,
            "count" : 6468,
            "type" : "VEC4"
        },
        {
            "bufferView" : 10,
            "componentType" : 5126,
            "count" : 6468,
            "max" : [
                0.09610599279403687,
                0.1378621757030487,
                0.10903525352478027
            ],
            "min" : [
                -0.15642249584197998,
                -0.20140334963798523,
                -0.10170221328735352
            ],
            "type" : "VEC3"
        },
        {
            "bufferView" : 11,
            "componentType" : 5126,
            "count" : 6468,
            "type" : "VEC3"
        },
        {
            "bufferView" : 12,
            "componentType" : 5126,
            "count" : 6468,
            "type" : "VEC4"
        },
        {
            "bufferView" : 13,
            "componentType" : 5126,
            "count" : 6468,
            "max" : [
                0.09610599279403687,
                0.1378621757030487,
                0.10903525352478027
            ],
            "min" : [
                -0.15642249584197998,
                -0.20140334963798523,
                -0.10170221328735352
            ],
            "type" : "VEC3"
        },
        {
            "bufferView" : 14,
            "componentType" : 5126,
            "count" : 6468,
            "type" : "VEC3"
        },
        {
            "bufferView" : 15,
            "componentType" : 5126,
            "count" : 6468,
            "type" : "VEC4"
        }
    ],
    "bufferViews" : [
        {
            "buffer" : 0,
            "byteLength" : 77616,
            "byteOffset" : 0
        },
        {
            "buffer" : 0,
            "byteLength" : 77616,
            "byteOffset" : 77616
        },
        {
            "buffer" : 0,
            "byteLength" : 103488,
            "byteOffset" : 155232
        },
        {
            "buffer" : 0,
            "byteLength" : 12936,
            "byteOffset" : 258720
        },
        {
            "buffer" : 0,
            "byteLength" : 77616,
            "byteOffset" : 271656
        },
        {
            "buffer" : 0,
            "byteLength" : 77616,
            "byteOffset" : 349272
        },
        {
            "buffer" : 0,
            "byteLength" : 103488,
            "byteOffset" : 426888
        },
        {
            "buffer" : 0,
            "byteLength" : 77616,
            "byteOffset" : 530376
        },
        {
            "buffer" : 0,
            "byteLength" : 77616,
            "byteOffset" : 607992
        },
        {
            "buffer" : 0,
            "byteLength" : 103488,
            "byteOffset" : 685608
        },
        {
            "buffer" : 0,
            "byteLength" : 77616,
            "byteOffset" : 789096
        },
        {
            "buffer" : 0,
            "byteLength" : 77616,
            "byteOffset" : 866712
        },
        {
            "buffer" : 0,
            "byteLength" : 103488,
            "byteOffset" : 944328
        },
        {
            "buffer" : 0,
            "byteLength" : 77616,
            "byteOffset" : 1047816
        },
        {
            "buffer" : 0,
            "byteLength" : 77616,
            "byteOffset" : 1125432
        },
        {
            "buffer" : 0,
            "byteLength" : 103488,
            "byteOffset" : 1203048
        }
    ],
    "buffers" : [
        {
            "byteLength" : 1306536,
            "uri" : "data:application/octet-stream;base64,"
        }
    ]
}
