{
    "asset" : {
        "generator" : "Khronos glTF Blender I/O v1.2.75",
        "version" : "2.0"
    },
    "scene" : 0,
    "scenes" : [
        {
            "name" : "Scene",
            "nodes" : [
                0,
                1,
                2,
                6,
                8,
                9,
                10,
                11
            ]
        }
    ],
    "nodes" : [
        {
            "name" : "Light.001",
            "rotation" : [
                0.16907575726509094,
                0.7558803558349609,
                -0.27217137813568115,
                0.570947527885437
            ],
            "translation" : [
                4.076245307922363,
                5.903861999511719,
                -1.0054539442062378
            ]
        },
        {
            "name" : "Camera.001",
            "rotation" : [
                0.483536034822464,
                0.33687159419059753,
                -0.20870360732078552,
                0.7804827094078064
            ],
            "translation" : [
                7.358891487121582,
                4.958309173583984,
                6.925790786743164
            ]
        },
        {
            "name" : "Node",
            "rotation" : [
                0.7071068286895752,
                0,
                0,
                0.7071067094802856
            ]
        },
        {
            "mesh" : 0,
            "name" : "node_MeshObject-1841292928-PolyPaper8",
            "translation" : [
                0,
                0,
                -1.973020315170288
            ]
        },
        {
            "children" : [
                3
            ],
            "name" : "Node.003",
            "translation" : [
                0.011376982554793358,
                1.2578761577606201,
                0.6499249339103699
            ]
        },
        {
            "children" : [
                4
            ],
            "name" : "Node.002",
            "translation" : [
                -0.011376982554793358,
                -1.2578761577606201,
                -0.6499249339103699
            ]
        },
        {
            "children" : [
                5
            ],
            "name" : "Node.001",
            "rotation" : [
                0.7071068286895752,
                0,
                0,
                0.7071067094802856
            ]
        },
        {
            "name" : "headLight",
            "translation" : [
                -2.698692560195923,
                1.3493462800979614,
                -1.3493462800979614
            ]
        },
        {
            "children" : [
                7
            ],
            "name" : "Camera.002",
            "rotation" : [
                0.24396619200706482,
                0.7191836833953857,
                -0.3054511845111847,
                0.574416995048523
            ],
            "translation" : [
                1.4149632453918457,
                2.445648193359375,
                -1.584667444229126
            ]
        },
        {
            "name" : "keyLight",
            "rotation" : [
                -0.7113732695579529,
                -0.11029913276433945,
                0.1598774790763855,
                0.6754417419433594
            ],
            "scale" : [
                0,
                9.329605177299527e-08,
                2.725679636001587
            ],
            "translation" : [
                -2.718463659286499,
                6.504234790802002,
                -3.991269111633301
            ]
        },
        {
            "name" : "Light",
            "rotation" : [
                0.16907575726509094,
                0.7558803558349609,
                -0.27217137813568115,
                0.570947527885437
            ],
            "translation" : [
                4.076245307922363,
                5.903861999511719,
                -1.0054539442062378
            ]
        },
        {
            "name" : "Camera",
            "rotation" : [
                0.483536034822464,
                0.33687159419059753,
                -0.20870360732078552,
                0.7804827094078064
            ],
            "translation" : [
                7.358891487121582,
                4.958309173583984,
                6.925790786743164
            ]
        }
    ],
    "materials" : [
        {
            "emissiveFactor" : [
                0,
                0,
                0
            ],
            "name" : "BlocksPaper_COLOR_0.001",
            "pbrMetallicRoughness" : {
                "metallicFactor" : 0,
                "roughnessFactor" : 0.6000000238418579
            }
        }
    ],
    "meshes" : [
        {
            "name" : "mesh_m0-PolyPaper8_-81652",
            "primitives" : [
                {
                    "attributes" : {
                        "POSITION" : 0,
                        "NORMAL" : 1,
                        "COLOR_0" : 2
                    },
                    "indices" : 3,
                    "material" : 0
                }
            ]
        }
    ],
    "accessors" : [
        {
            "bufferView" : 0,
            "componentType" : 5126,
            "count" : 12906,
            "max" : [
                0.5064001083374023,
                0.5016385912895203,
                2.4528942108154297
            ],
            "min" : [
                -0.5778276324272156,
                -0.5589547157287598,
                -0.3496861457824707
            ],
            "type" : "VEC3"
        },
        {
            "bufferView" : 1,
            "componentType" : 5126,
            "count" : 12906,
            "type" : "VEC3"
        },
        {
            "bufferView" : 2,
            "componentType" : 5126,
            "count" : 12906,
            "type" : "VEC4"
        },
        {
            "bufferView" : 3,
            "componentType" : 5123,
            "count" : 12906,
            "type" : "SCALAR"
        }
    ],
    "bufferViews" : [
        {
            "buffer" : 0,
            "byteLength" : 154872,
            "byteOffset" : 0
        },
        {
            "buffer" : 0,
            "byteLength" : 154872,
            "byteOffset" : 154872
        },
        {
            "buffer" : 0,
            "byteLength" : 206496,
            "byteOffset" : 309744
        },
        {
            "buffer" : 0,
            "byteLength" : 25812,
            "byteOffset" : 516240
        }
    ],
    "buffers" : [
        {
            "byteLength" : 542052,
            "uri" : "rose_2.bin"
        }
    ]
}
