{
    "asset" : {
        "generator" : "Khronos glTF Blender I/O v1.2.75",
        "version" : "2.0"
    },
    "scene" : 0,
    "scenes" : [
        {
            "name" : "Scene",
            "nodes" : [
                0,
                1,
                2
            ]
        }
    ],
    "nodes" : [
        {
            "mesh" : 0,
            "name" : "node_MeshObject-1927842816-PolyPaper19",
            "rotation" : [
                0,
                0,
                0,
                -6.332993507385254e-08
            ],
            "scale" : [
                1.9514343738555908,
                1.9514343738555908,
                1.9514343738555908
            ],
            "translation" : [
                0,
                0.2776336371898651,
                0
            ]
        },
        {
            "name" : "Light",
            "rotation" : [
                0.16907575726509094,
                0.7558803558349609,
                -0.27217137813568115,
                0.570947527885437
            ],
            "translation" : [
                4.076245307922363,
                5.903861999511719,
                -1.0054539442062378
            ]
        },
        {
            "name" : "Camera",
            "rotation" : [
                0.483536034822464,
                0.33687159419059753,
                -0.20870360732078552,
                0.7804827094078064
            ],
            "translation" : [
                7.358891487121582,
                4.958309173583984,
                6.925790786743164
            ]
        }
    ],
    "materials" : [
        {
            "emissiveFactor" : [
                0,
                0,
                0
            ],
            "name" : "BlocksPaper",
            "pbrMetallicRoughness" : {
                "metallicFactor" : 0,
                "roughnessFactor" : 0.6000000238418579
            }
        }
    ],
    "meshes" : [
        {
            "name" : "mesh_m0-PolyPaper19_-860402",
            "primitives" : [
                {
                    "attributes" : {
                        "POSITION" : 0,
                        "NORMAL" : 1,
                        "COLOR_0" : 2
                    },
                    "indices" : 3,
                    "material" : 0
                }
            ]
        }
    ],
    "accessors" : [
        {
            "bufferView" : 0,
            "componentType" : 5126,
            "count" : 6468,
            "max" : [
                0.09610599279403687,
                0.1378621757030487,
                0.10903525352478027
            ],
            "min" : [
                -0.15642249584197998,
                -0.20140334963798523,
                -0.10170221328735352
            ],
            "type" : "VEC3"
        },
        {
            "bufferView" : 1,
            "componentType" : 5126,
            "count" : 6468,
            "type" : "VEC3"
        },
        {
            "bufferView" : 2,
            "componentType" : 5126,
            "count" : 6468,
            "type" : "VEC4"
        },
        {
            "bufferView" : 3,
            "componentType" : 5123,
            "count" : 6468,
            "type" : "SCALAR"
        }
    ],
    "bufferViews" : [
        {
            "buffer" : 0,
            "byteLength" : 77616,
            "byteOffset" : 0
        },
        {
            "buffer" : 0,
            "byteLength" : 77616,
            "byteOffset" : 77616
        },
        {
            "buffer" : 0,
            "byteLength" : 103488,
            "byteOffset" : 155232
        },
        {
            "buffer" : 0,
            "byteLength" : 12936,
            "byteOffset" : 258720
        }
    ],
    "buffers" : [
        {
            "byteLength" : 271656,
            "uri" : "rose_1.bin"
        }
    ]
}
